<?xml version="1.0" standalone="no"?>
<!DOCTYPE svg PUBLIC "-//W3C//DTD SVG 20010904//EN"
 "http://www.w3.org/TR/2001/REC-SVG-20010904/DTD/svg10.dtd">
<svg version="1.0" xmlns="http://www.w3.org/2000/svg"
 width="700.000000pt" height="700.000000pt" viewBox="0 0 700.000000 700.000000"
 preserveAspectRatio="xMidYMid meet">
<metadata>
Created by potrace 1.11, written by Peter Selinger 2001-2013
</metadata>
<g transform="translate(0.000000,700.000000) scale(0.100000,-0.100000)"
fill="#000000" stroke="none">
<path d="M2709 5336 c-2 -2 -35 -6 -74 -10 -221 -19 -470 -89 -665 -186 -127
-63 -142 -72 -226 -126 -174 -113 -374 -297 -476 -439 -4 -5 -18 -23 -31 -40
-28 -37 -97 -141 -115 -175 -39 -71 -102 -198 -102 -204 0 -3 -9 -25 -19 -49
-11 -23 -30 -71 -42 -107 -27 -78 -21 -70 -53 -76 -60 -11 -196 -58 -267 -94
-189 -93 -330 -218 -446 -391 -130 -196 -195 -423 -188 -659 9 -308 116 -561
328 -775 135 -136 278 -225 457 -284 188 -62 11 -58 2920 -57 2559 1 2668 2
2735 20 262 69 461 266 531 526 31 118 20 368 -19 418 -5 6 -7 12 -3 12 11 0
-55 123 -99 185 -123 172 -328 283 -546 297 -37 2 -37 2 -43 57 -4 31 -7 61
-8 66 -3 21 -47 173 -68 235 -28 84 -109 246 -168 335 -222 339 -591 580
-1012 660 -134 26 -360 26 -525 1 -28 -5 -35 1 -97 87 -255 348 -670 615
-1118 721 -58 14 -127 28 -155 32 -27 3 -61 8 -75 10 -35 5 -327 14 -331 10z"/>
</g>
</svg>
